<svg width="32" height="33" viewBox="0 0 32 33" fill="none" xmlns="http://www.w3.org/2000/svg">
<path d="M16 32.5C24.8366 32.5 32 25.3366 32 16.5C32 7.66344 24.8366 0.5 16 0.5C7.16344 0.5 0 7.66344 0 16.5C0 25.3366 7.16344 32.5 16 32.5Z" fill="#EF0027"/>
<path d="M21.932 10.4138L7.5 7.75781L15.095 26.8698L25.678 13.9758L21.932 10.4138ZM21.7 11.5838L23.908 13.6828L17.87 14.7758L21.7 11.5838ZM16.558 14.5568L10.194 9.27881L20.596 11.1928L16.558 14.5568ZM16.105 15.4908L15.067 24.0708L9.472 9.98781L16.105 15.4908ZM17.065 15.9458L23.752 14.7358L16.082 24.0788L17.065 15.9458Z" fill="white"/>
</svg>
